<svg width="682" height="83" xmlns="http://www.w3.org/2000/svg" xmlns:xlink="http://www.w3.org/1999/xlink" xml:space="preserve" overflow="hidden"><g transform="translate(-495 -797)"><g><path d="M159.601 0.0562561 2.83557 0.0562561C1.38978 0.0562561 0.217928 1.23367 0.217928 2.68695L0.217928 30.4259C0.217928 31.8792 1.38978 33.0566 2.83557 33.0566L159.601 33.0566C161.046 33.0566 162.218 31.8792 162.218 30.4259L162.218 2.68695C162.218 1.23367 161.046 0.0562561 159.601 0.0562561" fill="#00A3E9" fill-rule="evenodd" fill-opacity="1" transform="matrix(1 0 0 -1 1011 877)"/><path d="M1.09573 21.089 1.09573 26.0607 13.9159 26.0607C17.2326 26.0607 19.4234 25.3962 20.5833 24.0016 21.5816 22.8313 22.1937 20.6779 22.1937 18.4281 22.1937 15.7374 21.3876 13.456 19.9712 12.1897 18.6512 10.9857 16.7508 10.4803 13.6259 10.4803L10.1793 10.4803C7.02268 10.4803 6.21657 9.56206 6.21657 7.12333L6.21657 5.06418 21.6776 5.06418 21.6776 0.0605738 0.193322 0.0605738 0.193322 5.85666C0.193322 13.0764 2.93192 15.8004 10.2435 15.8004L13.5281 15.8004C15.7845 15.8004 16.2025 16.2116 16.2025 18.4281 16.2025 20.613 15.5905 21.089 12.6257 21.089Z" fill="#FFFFFF" fill-rule="evenodd" fill-opacity="1" transform="matrix(1 0 0 -1 1040 874)"/><path d="M8.84117 21.0575C6.58769 21.0575 5.96837 20.3926 5.96837 17.9223L5.96837 8.2323C5.96837 5.38246 6.18518 5.03264 8.8104 5.03264L12.9799 5.03264C15.0799 5.03264 15.3886 5.41401 15.3886 7.88427L15.3886 18.08C15.3886 20.2983 14.7078 21.0575 12.2071 21.0575ZM14.7403 26.0607C16.4993 26.0607 18.1062 25.4277 19.3106 24.2869 20.73 22.8628 21.1941 21.6592 21.1941 19.0316L21.1941 6.77494C21.1941 2.43657 18.8465 0.0605738 14.307 0.0605738L6.98845 0.0605738C2.38777 0.0605738 0.193735 2.24553 0.193735 6.7434L0.193735 19.0632C0.193735 23.7184 2.14018 26.0607 6.58769 26.0607Z" fill="#FFFFFF" fill-rule="evenodd" fill-opacity="1" transform="matrix(1 0 0 -1 1068 874)"/><path d="M1.10996 21.089 1.10996 26.0607 13.9305 26.0607C17.2472 26.0607 19.4376 25.3962 20.5979 24.0016 21.5958 22.8313 22.2083 20.6779 22.2083 18.4281 22.2083 15.7374 21.4022 13.456 19.9858 12.1897 18.6636 10.9857 16.765 10.4803 13.6405 10.4803L10.1939 10.4803C7.03691 10.4803 6.23079 9.56206 6.23079 7.12333L6.23079 5.06418 21.6921 5.06418 21.6921 0.0605738 0.207912 0.0605738 0.207912 5.85666C0.207912 13.0764 2.94615 15.8004 10.2577 15.8004L13.5424 15.8004C15.7988 15.8004 16.2168 16.2116 16.2168 18.4281 16.2168 20.613 15.6047 21.089 12.6403 21.089Z" fill="#FFFFFF" fill-rule="evenodd" fill-opacity="1" transform="matrix(1 0 0 -1 1095 874)"/><path d="M0.203283 26.0618 5.65984 26.0618 5.65984 14.4402C5.69021 12.0961 5.84172 11.97 8.12823 11.9388L11.4198 11.9388 11.4198 26.0618 17.1793 26.0618 17.1793 11.9388 21.2033 11.9388 21.2033 6.93337 17.1793 6.93337 17.1793 0.0616491 11.4198 0.0616491 11.4198 6.93337 5.81135 6.93337C3.12932 6.96491 2.15467 7.18713 1.30081 8.01115 0.386894 8.92944 0.23331 9.62585 0.203283 12.8886Z" fill="#FFFFFF" fill-rule="evenodd" fill-opacity="1" transform="matrix(1 0 0 -1 1123 874)"/><path d="M78.069 42.8815 44.4121 42.8815 44.4121 59.6835 73.6506 59.6835 73.6506 69.5925 44.4121 69.5925 44.4121 77.0556 33.7233 77.0556 33.7233 69.5925 4.48328 69.5925 4.48328 59.6835 33.7233 59.6835 33.7233 42.8815 0.068555 42.8815 0.068555 32.9743 25.5612 32.9743 0.952516 12.6155 0.952516 0.0555587 33.7233 27.8396 33.7233 0.0555587 44.4121 0.0555587 44.4121 27.8396 77.1846 0.0555587 77.1846 12.6155 52.6586 32.9743 78.069 32.9743Z" fill="#194C8A" fill-rule="evenodd" fill-opacity="1" transform="matrix(1 0 0 -1 499 879)"/><path d="M78.0921 42.7032 64.7418 42.7032 64.7418 55.2315 54.7702 55.2315 54.7702 42.696 44.4732 42.696 44.4732 59.6853 73.6787 59.6853 73.6787 69.5925 44.4732 69.5925 44.4732 77.0556 33.7964 77.0556 33.7964 69.5925 4.58945 69.5925 4.58945 59.6853 33.7964 59.6853 33.7964 42.696 23.5016 42.696 23.5016 55.2315 13.618 55.2315 13.618 42.7032 0.0920282 42.7032 0.0920282 32.9743 25.6436 32.9743 1.06267 12.6173 1.06267 0.0555587 33.7964 27.8396 33.7964 0.0555587 44.4732 0.0555587 44.4732 27.8396 77.2091 0.0555587 77.2091 12.6173 52.7104 32.9743 78.0921 32.9743Z" fill="#194C8A" fill-rule="evenodd" fill-opacity="1" transform="matrix(1 0 0 -1 589 879)"/><path d="M0.0393802-0.242088 10.0393-0.242088 10.0393 3.75804 0.0393802 3.75804Z" fill="#2473B9" fill-rule="evenodd" fill-opacity="1" transform="matrix(1 0 0 -1 888 862)"/><path d="M0.156923 8.70565 8.03053 8.70565 8.03053 0.0624321 12.208 0.0624321 12.208 8.70565 20.1572 8.70565 20.1572 12.0625 0.156923 12.0625Z" fill="#2473B9" fill-rule="evenodd" fill-opacity="1" transform="matrix(1 0 0 -1 883 875)"/><path d="M0.166727 0.0615065 4.082 0.0615065 5.16653 7.06138 1.29053 7.06138Z" fill="#2473B9" fill-rule="evenodd" fill-opacity="1" transform="matrix(1 0 0 -1 883 875)"/><path d="M0.168106 7.06283 1.25448 0.0629614 5.16866 0.0629614 4.04599 7.06283Z" fill="#2473B9" fill-rule="evenodd" fill-opacity="1" transform="matrix(1 0 0 -1 898 875)"/><path d="M25.1681 30.0582 15.1672 15.0113 25.0504 0.0794188 20.0965 0.0642031 12.6642 11.2459 5.23012 0.0642031 0.186803 0.0697698 10.1612 15.0747 0.167978 30.0582 5.20406 30.0641 12.6211 18.777 20.1248 30.0641Z" fill="#2473B9" fill-rule="evenodd" fill-opacity="1" transform="matrix(1 0 0 -1 929 876)"/><path d="M4.01185 3.67337 4.01185 12.7336 17.337 12.7336 17.337 16.3509 4.01185 16.3509 4.01185 24.4381 21.1397 24.4381 21.1397 28.0559 0.176292 28.0559 0.162874 28.0559 0.162874 0.0556678 21.1628 0.0556678 21.1628 3.67337Z" fill="#2473B9" fill-rule="evenodd" fill-opacity="1" transform="matrix(1 0 0 -1 907 875)"/><path d="M17.4327 15.295 3.6508 15.295 3.6508 24.1906 17.4327 24.1906ZM0.0415896 27.8062 0.0415896-0.193612 3.6508-0.193612 3.6508 11.6773 21.0419 11.6773 21.0419 27.8062Z" fill="#2473B9" fill-rule="evenodd" fill-opacity="1" transform="matrix(1 0 0 -1 957 875)"/><path d="M3.79123 24.1906 19.2966 24.1906 19.2966 3.42584 3.79123 3.42584ZM23.0432 27.8062 0.0446455 27.8062 0.0446455-0.193612 23.0432-0.193612 23.045-0.193612 23.045 27.8062Z" fill="#2473B9" fill-rule="evenodd" fill-opacity="1" transform="matrix(1 0 0 -1 981 875)"/><path d="M2.89077 10.581 3.708 11.4327 5.71989 8.74334 4.85255 7.96183ZM9.26026 11.9274 7.60201 10.4363 5.49855 13.2465 9.26026 13.2465ZM21.151 16.0568 21.1341 16.0568 14.1745 16.0568 14.1745 13.2465 18.3067 13.2465 15.686 9.10981 12.5551 11.9274 12.5551 13.2465 12.5551 14.8927 12.5551 16.0568 3.93114 16.0568 0.150685 12.1076 0.150685 7.71833 1.12437 8.73635 2.9708 6.26885 0.681326 4.20765 0.681326 0.0565957 10.9077 9.14056 21.1341 0.0565957 21.1341 4.20765 17.7055 7.29421 21.151 12.8172Z" fill="#2473B9" fill-rule="evenodd" fill-opacity="1" transform="matrix(1 0 0 -1 882 863)"/><path d="M25.2343 3.42374 3.83847 3.42374 3.83847 24.1889 25.2343 24.1889ZM0.0364482-0.193612 29.0363-0.193612 29.0363 27.8062 0.0364482 27.8062Z" fill="#2473B9" fill-rule="evenodd" fill-opacity="1" transform="matrix(1 0 0 -1 841 875)"/><path d="M0.138302 3.25086 0.138302 0.0601667 17.1385 0.0601667 17.1385 3.25086 15.8948 3.25086 15.3303 6.72196 12.8812 6.72196 13.4107 3.25086 10.4646 3.25086 10.4646 7.8655 16.302 7.8655 16.302 11.0566 10.4646 11.0566 10.4646 14.869 17.1385 14.869 17.1385 18.06 0.138302 18.06 0.138302 14.869 6.81182 14.869 6.81182 11.0566 0.996765 11.0566 0.996765 7.8655 6.81182 7.8655 6.81182 3.25086Z" fill="#2473B9" fill-rule="evenodd" fill-opacity="1" transform="matrix(1 0 0 -1 847 870)"/><path d="M9.14672 24.4424 9.13187 24.4424 9.13187 28.0597 3.79911 28.0597 2.20285 28.0597 0.146432 28.0597 0.146432 0.0598691 3.79911 0.0598691 3.79911 24.4424 5.83006 24.4424 4.16448 17.2903 5.65109 12.5981 5.65109 5.74638 4.31587 5.74638 4.31587 2.13078 5.65109 2.13078 8.95289 2.13078 8.96775 2.13078 8.96775 12.5981 7.48114 17.2903Z" fill="#2473B9" fill-rule="evenodd" fill-opacity="1" transform="matrix(1 0 0 -1 873 875)"/><path d="M3.53503 31.0627 30.6571 31.0627 30.6571 26.1554 16.8199 26.1554 16.8199 19.0936 34.0959 19.0936 34.0959 14.3053 16.8199 14.3053 16.8199 10.196C16.8199 7.88283 17.1082 6.43837 17.6898 5.86622 18.2696 5.29406 19.6918 5.00907 21.9599 5.00907 24.963 5.00907 27.9955 5.14146 31.0523 5.4077L31.2111 0.461404C27.811 0.194807 24.3832 0.0624104 20.9312 0.0624104 16.9787 0.0624104 14.3415 0.728001 13.0245 2.05666 11.7057 3.38567 11.0465 6.04696 11.0465 10.0354L11.0465 14.3053 0.0958604 14.3053 0.0958604 19.0936 11.0465 19.0936 11.0465 26.1554 3.53503 26.1554Z" fill="#2473B9" fill-rule="evenodd" fill-opacity="1" transform="matrix(1 0 0 -1 671 877)"/><path d="M0.107986 5.37078C7.81838 7.15489 13.4039 10.0382 16.8643 14.0208 20.3228 18.0012 22.4076 24.0142 23.1204 32.0578L29.1082 31.4979C28.5334 25.2124 27.242 20.0057 25.2319 15.8775 23.2221 11.7494 20.3499 8.42751 16.6172 5.91009 12.8848 3.39232 8.02544 1.44239 2.03577 0.0574357Z" fill="#2473B9" fill-rule="evenodd" fill-opacity="1" transform="matrix(1 0 0 -1 706 877)"/><path d="M28.1365 27.2095C32.1249 25.1682 34.1211 21.4895 34.1211 16.1723 34.1211 5.43265 25.3189 0.062641 7.72181 0.062641L7.31767 5.17662C14.7282 5.17662 20.0841 6.04413 23.3871 7.77513 26.6878 9.50796 28.3384 12.1309 28.3384 15.6493 28.3384 18.4678 27.5228 20.5357 25.8931 21.8526 24.2612 23.1681 21.6685 23.8265 18.1106 23.8265 14.6887 23.8265 9.08162 22.8858 1.29361 21.0062L0.120693 26.122C8.3677 28.0825 14.5395 29.0629 18.6354 29.0629 21.8159 29.0629 24.4993 28.6601 26.6824 27.8549 27.028 27.7081 27.7174 27.3996 28.1365 27.2095" fill="#2473B9" fill-rule="evenodd" fill-opacity="1" transform="matrix(1 0 0 -1 739 877)"/><path d="M20.6833 36.0635 23.9367 32.0147C18.9632 28.2188 14.2935 24.9192 9.92967 22.1122 8.34103 21.0969 7.32321 20.4024 6.87265 20.0279 6.42244 19.6531 6.19806 19.2674 6.19806 18.8647 6.19806 18.4903 6.39623 18.1177 6.7951 17.7432 7.18966 17.3684 8.11664 16.687 9.57173 15.6981 14.757 12.1437 19.9419 8.21481 25.1268 3.91149L21.5955 0.0630709C16.2512 4.44723 11.2124 8.28223 6.47594 11.5688 3.5916 13.5744 1.81375 14.9623 1.13916 15.7395 0.464208 16.5126 0.126733 17.5558 0.126733 18.8647 0.126733 20.2824 0.484672 21.3778 1.1984 22.1531 1.91212 22.9267 3.71223 24.2508 6.59477 26.1215 11.383 29.2486 16.0785 32.5616 20.6833 36.0635" fill="#2473B9" fill-rule="evenodd" fill-opacity="1" transform="matrix(1 0 0 -1 778 879)"/><path d="M0.13018 33.0633 5.26942 33.0633 5.26942 25.1751 5.30805 25.1751C8.18166 29.8976 11.9376 32.2588 16.5765 32.2588 19.8431 32.2588 22.4192 31.0987 24.3029 28.7772 26.1883 26.4574 27.1303 23.1901 27.1303 18.9789 27.1303 12.4313 25.2982 7.64296 21.6345 4.61074 17.9727 1.58033 12.1611 0.0633153 4.20188 0.0633153L3.92507 4.89274C10.4087 4.89274 14.9753 5.96619 17.6236 8.11309 20.2716 10.2582 21.5956 13.8806 21.5956 18.9789 21.5956 21.688 21.121 23.7334 20.1739 25.1151 19.2248 26.4967 17.8543 27.1888 16.0611 27.1888 13.3467 27.1888 10.8757 25.7788 8.64874 22.9627 6.42173 20.1466 5.24367 16.712 5.11242 12.6605L0.13018 12.7002Z" fill="#2473B9" fill-rule="evenodd" fill-opacity="1" transform="matrix(1 0 0 -1 808 878)"/><path d="M4.02806-0.212117 0.0282907-0.212117 0.0282907 6.78848 4.02806 6.78848Z" fill="#2473B9" fill-rule="evenodd" fill-opacity="1" transform="matrix(1 0 0 -1 772 850)"/><path d="M4.02809-0.212117 0.0279565-0.212117 0.0279565 6.78848 4.02809 6.78848Z" fill="#2473B9" fill-rule="evenodd" fill-opacity="1" transform="matrix(1 0 0 -1 767 850)"/></g></g></svg>