<?xml version="1.0" encoding="UTF-8"?><svg id="_レイヤー_2" xmlns="http://www.w3.org/2000/svg" xmlns:xlink="http://www.w3.org/1999/xlink" viewBox="0 0 74.71 27.89"><defs><style>.cls-1{fill:#ee86a8;}.cls-2{fill:#ba79b1;}.cls-3{fill:url(#_名称未設定グラデーション_7);}.cls-4{fill:#796baf;}.cls-5{fill:#59c3e1;}.cls-6{fill:#f29a63;}.cls-7{fill:#00ac97;}.cls-8{fill:#5d615e;}.cls-9{fill:#6c9bd2;}.cls-10{fill:#8cc66d;}.cls-11{fill:url(#_名称未設定グラデーション_14);}.cls-12{fill:url(#_名称未設定グラデーション_21);}</style><linearGradient id="_名称未設定グラデーション_7" x1="20.76" y1="26.7" x2="21.6" y2="26.7" gradientUnits="userSpaceOnUse"><stop offset="0" stop-color="#69bd83"/><stop offset="1" stop-color="#59c3e1"/></linearGradient><linearGradient id="_名称未設定グラデーション_14" x1="29.28" y1="26.69" x2="30.24" y2="26.69" gradientUnits="userSpaceOnUse"><stop offset="0" stop-color="#6aa0d6"/><stop offset="1" stop-color="#796baf"/></linearGradient><linearGradient id="_名称未設定グラデーション_21" x1="40.27" y1="26.7" x2="41.33" y2="26.7" gradientUnits="userSpaceOnUse"><stop offset="0" stop-color="#ee86a8"/><stop offset="1" stop-color="#f29a63"/></linearGradient></defs><g id="_レイヤー_1-2"><g id="_概要上メインロゴ"><polygon class="cls-8" points="30.06 14.77 28.33 22.01 26.72 14.77 26.04 14.77 24.32 22.01 22.71 14.77 22.03 14.77 23.97 23.48 24.65 23.48 26.37 16.24 27.98 23.48 28.66 23.48 30.73 14.77 30.06 14.77"/><rect class="cls-2" x="33.53" y="18.41" width="3.88" height=".68"/><polygon class="cls-8" points="37.41 15.45 37.41 14.77 33.13 14.77 32.46 14.77 32.46 15.45 32.46 22.83 32.46 23.48 32.46 23.51 37.41 23.51 37.41 22.83 33.13 22.83 33.13 15.45 37.41 15.45"/><rect class="cls-1" x="40.53" y="18.41" width="3.88" height=".68"/><polygon class="cls-8" points="44.41 15.45 44.41 14.77 40.13 14.77 39.46 14.77 39.46 15.45 39.46 22.83 39.46 23.48 39.46 23.51 44.41 23.51 44.41 22.83 40.13 22.83 40.13 15.45 44.41 15.45"/><polygon class="cls-8" points="52.45 14.77 47.25 19.34 47.25 14.77 46.57 14.77 46.57 19.93 46.57 20.79 46.57 23.48 47.25 23.48 47.25 20.2 47.99 19.55 47.99 19.55 52.45 23.47 52.45 22.61 48.48 19.12 52.45 15.63 52.45 14.77"/><polygon class="cls-8" points="5.36 7.85 0 12.56 0 11.52 5.36 6.81 5.36 7.85"/><polygon class="cls-6" points="7.13 6.81 12.49 11.52 12.49 12.56 7.13 7.85 7.13 6.81"/><polygon class="cls-8" points="12.49 5.19 6.65 5.19 6.65 2.67 11.49 2.67 11.49 1.86 6.65 1.86 6.65 0 5.84 0 5.84 1.86 1 1.86 1 2.67 5.84 2.67 5.84 5.19 0 5.19 0 6.01 5.84 6.01 5.84 12.56 6.65 12.56 6.65 6.01 12.49 6.01 12.49 5.19"/><polygon class="cls-8" points="20.56 7.85 15.2 12.56 15.2 11.52 20.56 6.81 20.56 7.85"/><polygon class="cls-5" points="18.81 4.72 17.44 3.15 18.47 3.15 19.85 4.72 18.81 4.72"/><polygon class="cls-8" points="23.04 4.72 24.42 3.15 25.45 3.15 24.08 4.72 23.04 4.72"/><polygon class="cls-8" points="22.33 6.81 27.69 11.52 27.69 12.56 22.33 7.85 22.33 6.81"/><polygon class="cls-8" points="27.69 5.19 21.85 5.19 21.85 2.67 26.69 2.67 26.69 1.86 21.85 1.86 21.85 0 21.04 0 21.04 1.86 16.2 1.86 16.2 2.67 21.04 2.67 21.04 5.19 15.2 5.19 15.2 6.01 21.04 6.01 21.04 12.56 21.85 12.56 21.85 6.01 27.69 6.01 27.69 5.19"/><path class="cls-8" d="M42.62,1h-7.32v11.55h8.13V1h-.82ZM42.62,11.74h-6.5V1.82h6.5v9.92Z"/><rect class="cls-7" x="54.85" y=".33" width="1.44" height=".82" transform="translate(56.31 -54.84) rotate(90)"/><rect class="cls-10" x="56.68" y=".33" width="1.44" height=".82" transform="translate(58.14 -56.67) rotate(90)"/><polygon class="cls-8" points="51.91 2.52 51.91 0 51.1 0 51.1 2.52 46.38 2.52 46.38 3.34 51.1 3.34 51.1 12.56 51.91 12.56 51.91 3.34 56.87 3.34 56.87 2.52 51.91 2.52"/><rect class="cls-8" x="46.94" y="6.1" width=".82" height="6.46"/><rect class="cls-8" x="55.16" y="6.1" width=".82" height="6.46"/><polygon class="cls-8" points="74.71 5.84 69.14 5.84 69.14 0 68.33 0 68.33 12.56 69.14 12.56 69.14 6.65 74.71 6.65 74.71 5.84"/><rect class="cls-8" x="59.37" y="4.59" width=".82" height="3.7"/><rect class="cls-8" x="61.51" y="4.59" width=".82" height="3.7"/><polygon class="cls-8" points="64.13 4.59 64.13 9.6 61.99 11.47 61.99 12.56 64.94 9.97 64.94 4.59 64.13 4.59"/><polygon class="cls-8" points="32.22 3.81 29.84 5.9 32.22 7.99 32.22 7.46 30.43 5.9 32.22 4.33 32.22 3.81"/><polygon class="cls-8" points="31.79 8.38 31.79 10.87 30.46 12.03 30.46 12.56 32.2 11.03 32.2 10.51 32.2 8.38 31.79 8.38"/><polygon class="cls-8" points="30.95 9.47 30.26 10.07 30.26 8.38 29.85 8.38 29.85 10.43 29.85 10.96 30.95 9.99 30.95 9.47"/><polygon class="cls-8" points="32.18 .8 29.05 .8 29.05 1.22 32.18 1.22 32.18 2.16 30.61 3.54 30.61 4.06 32.59 2.33 32.59 2.33 32.59 2.32 32.59 1.8 32.59 1.22 32.59 .8 32.18 .8"/><rect class="cls-9" x="32.73" y="0" width=".41" height=".44"/><rect class="cls-4" x="32.04" y="0" width=".41" height=".44"/><path class="cls-3" d="M20.76,25.53h.84v.27h-.53v.74h.47v.27h-.47v1.06h-.31v-2.33Z"/><path class="cls-8" d="M22.04,26.3h.29v1.05c0,.1.02.17.04.21s.07.06.13.06.11-.02.14-.05c.03-.04.04-.1.04-.2v-1.06h.29v.93c0,.22-.02.36-.05.44-.07.14-.21.21-.42.21-.17,0-.29-.04-.36-.13-.07-.09-.11-.23-.11-.43v-1.03Z"/><path class="cls-8" d="M23.58,25.86h.29v.44h.16v.23h-.16v1.33h-.29v-1.33h-.16v-.23h.16v-.44Z"/><path class="cls-8" d="M24.48,26.3h.29v1.05c0,.1.02.17.04.21s.07.06.13.06.11-.02.14-.05c.03-.04.04-.1.04-.2v-1.06h.29v.93c0,.22-.02.36-.05.44-.07.14-.21.21-.42.21-.17,0-.29-.04-.36-.13-.07-.09-.11-.23-.11-.43v-1.03Z"/><path class="cls-8" d="M25.96,26.3h.29v.19c.05-.08.1-.14.15-.17s.11-.05.19-.06v.3s-.04,0-.05,0c-.1,0-.18.03-.22.08-.04.05-.06.14-.06.27v.95h-.29v-1.56Z"/><path class="cls-8" d="M27.64,27.33h.27c-.02.37-.17.55-.45.55-.08,0-.16-.02-.22-.05s-.11-.08-.15-.14-.07-.15-.09-.25-.03-.22-.03-.36c0-.28.04-.48.12-.61s.2-.2.36-.2c.31,0,.47.28.47.83v.04h-.66c0,.33.07.5.2.5.12,0,.18-.1.18-.3ZM27.62,26.93c-.01-.16-.03-.27-.06-.32-.03-.06-.07-.09-.13-.09s-.1.03-.13.09c-.03.05-.04.16-.06.32h.37Z"/><path class="cls-11" d="M30.24,25.57v.28c-.08-.04-.15-.06-.2-.06-.07,0-.14.02-.19.06s-.1.09-.13.17-.06.17-.08.29c-.02.12-.02.26-.02.42,0,.58.15.86.44.86.05,0,.11-.02.19-.05v.29c-.08.04-.16.06-.25.06-.47,0-.71-.39-.71-1.16,0-.42.06-.73.17-.93s.29-.31.53-.31c.09,0,.17.02.26.07Z"/><path class="cls-8" d="M30.73,26.3h.29v.19c.05-.08.1-.14.15-.17s.11-.05.19-.06v.3s-.04,0-.05,0c-.1,0-.18.03-.22.08-.04.05-.06.14-.06.27v.95h-.29v-1.56Z"/><path class="cls-8" d="M32.41,27.33h.27c-.02.37-.17.55-.45.55-.08,0-.16-.02-.22-.05s-.11-.08-.15-.14-.07-.15-.09-.25-.03-.22-.03-.36c0-.28.04-.48.12-.61s.2-.2.36-.2c.31,0,.47.28.47.83v.04h-.66c0,.33.07.5.2.5.12,0,.18-.1.18-.3ZM32.39,26.93c-.01-.16-.03-.27-.06-.32-.03-.06-.07-.09-.13-.09s-.1.03-.13.09c-.03.05-.04.16-.06.32h.37Z"/><path class="cls-8" d="M34.09,26.3v1.56h-.29v-.2c-.04.09-.08.14-.12.18s-.1.05-.16.05c-.13,0-.23-.07-.29-.2s-.09-.34-.09-.63.03-.47.09-.6c.06-.13.16-.19.29-.19.12,0,.21.07.29.2v-.18h.29ZM33.44,27.07c0,.21.01.35.04.43.03.08.08.12.15.12.06,0,.11-.04.14-.13.03-.09.04-.23.04-.42s-.01-.33-.04-.42c-.03-.08-.08-.13-.14-.13-.07,0-.12.04-.15.12-.03.07-.04.21-.04.42Z"/><path class="cls-8" d="M34.7,25.86h.29v.44h.16v.23h-.16v1.33h-.29v-1.33h-.16v-.23h.16v-.44Z"/><path class="cls-8" d="M35.73,25.63c.05,0,.1.02.14.06s.06.08.06.14-.02.1-.06.14-.08.06-.14.06-.1-.02-.14-.06-.06-.08-.06-.14c0-.05.02-.1.06-.14.04-.04.09-.06.14-.06ZM35.59,26.3h.29v1.56h-.29v-1.56Z"/><path class="cls-8" d="M37.36,27.09c0,.53-.16.79-.49.79s-.49-.27-.49-.8.16-.81.49-.81c.08,0,.16.02.22.05s.11.08.15.15.07.15.09.26.03.23.03.37ZM37.06,27.09c0-.21-.01-.35-.04-.43-.03-.08-.08-.12-.14-.12s-.12.04-.15.12c-.03.08-.04.22-.04.42s.01.34.04.42c.03.08.08.12.15.12s.12-.04.14-.12c.03-.07.04-.21.04-.41Z"/><path class="cls-8" d="M37.87,26.3h.29v.18c.08-.14.19-.21.32-.21s.22.05.27.15c.03.06.05.17.05.33v1.11h-.29v-1.05c0-.11-.01-.18-.04-.23s-.07-.07-.13-.07c-.03,0-.06,0-.08.02-.02.01-.04.03-.06.06-.01.03-.02.06-.03.1s0,.09,0,.15v1.01h-.29v-1.56Z"/><path class="cls-12" d="M40.27,25.53h.41c.17,0,.3.04.38.12.11.11.16.27.16.48,0,.17-.03.3-.08.4-.06.1-.14.16-.24.19l.43,1.13h-.32l-.43-1.14v1.14h-.31v-2.33ZM40.58,26.56c.12,0,.21-.03.26-.08s.08-.15.08-.29c0-.07,0-.13-.02-.19s-.03-.09-.05-.13-.05-.06-.09-.07-.08-.02-.13-.02h-.05v.77Z"/><path class="cls-8" d="M42.68,27.09c0,.53-.16.79-.49.79s-.49-.27-.49-.8.16-.81.49-.81c.08,0,.16.02.22.05s.11.08.15.15.07.15.09.26.03.23.03.37ZM42.38,27.09c0-.21-.01-.35-.04-.43-.03-.08-.08-.12-.14-.12s-.12.04-.15.12c-.03.08-.04.22-.04.42s.01.34.04.42c.03.08.08.12.15.12s.12-.04.14-.12c.03-.07.04-.21.04-.41Z"/><path class="cls-8" d="M43.18,25.3h.29v1.18s.04-.07.06-.1.04-.05.06-.06c.04-.03.09-.05.16-.05s.12.02.17.05c.05.03.09.08.12.14s.05.15.07.25.02.22.02.35c0,.28-.03.49-.09.62-.06.13-.16.2-.28.2-.07,0-.12-.02-.16-.05s-.08-.09-.12-.18v.2h-.29v-2.57ZM43.83,27.09c0-.21-.01-.36-.04-.43-.03-.08-.08-.12-.15-.12-.07,0-.11.04-.14.12-.03.08-.04.22-.04.42s.01.34.04.42c.03.08.07.12.14.12s.12-.04.15-.12c.03-.07.04-.21.04-.42Z"/><path class="cls-8" d="M45.57,27.09c0,.53-.16.79-.49.79s-.49-.27-.49-.8.16-.81.49-.81c.08,0,.16.02.22.05s.11.08.15.15.07.15.09.26.03.23.03.37ZM45.27,27.09c0-.21-.01-.35-.04-.43-.03-.08-.08-.12-.14-.12s-.12.04-.15.12c-.03.08-.04.22-.04.42s.01.34.04.42c.03.08.08.12.15.12s.12-.04.14-.12c.03-.07.04-.21.04-.41Z"/><path class="cls-8" d="M46.11,25.86h.29v.44h.16v.23h-.16v1.33h-.29v-1.33h-.16v-.23h.16v-.44Z"/><path class="cls-8" d="M47.74,25.53h.3l.16,1.08.03.16c.01.09.02.17.03.24l.02.2s0,.01,0,.03,0,.03,0,.05v-.08c.02-.13.03-.25.05-.36s.03-.21.04-.31l.17-1.01h.24l.16.98c.02.14.04.28.06.4s.03.24.04.35c.01-.12.02-.23.03-.34s.03-.22.04-.33l.02-.16.13-.91h.3l-.41,2.33h-.24l-.16-1.01s0-.02,0-.05-.01-.07-.02-.13l-.03-.23s0-.05,0-.08,0-.08-.01-.14v-.1s-.01.04-.01.06,0,.03,0,.04c0,.07,0,.12-.01.15,0,.04,0,.06,0,.07l-.03.22c0,.05-.01.09-.02.12s0,.05,0,.05l-.17,1.01h-.25l-.4-2.33Z"/><path class="cls-8" d="M50.53,27.33h.27c-.02.37-.17.55-.45.55-.08,0-.16-.02-.22-.05s-.11-.08-.15-.14-.07-.15-.09-.25-.03-.22-.03-.36c0-.28.04-.48.12-.61s.2-.2.36-.2c.31,0,.47.28.47.83v.04h-.66c0,.33.07.5.2.5.12,0,.18-.1.18-.3ZM50.51,26.93c-.01-.16-.03-.27-.06-.32-.03-.06-.07-.09-.13-.09s-.1.03-.13.09c-.03.05-.04.16-.06.32h.37Z"/><path class="cls-8" d="M51.91,27.33h.27c-.02.37-.17.55-.45.55-.08,0-.16-.02-.22-.05s-.11-.08-.15-.14-.07-.15-.09-.25-.03-.22-.03-.36c0-.28.04-.48.12-.61s.2-.2.36-.2c.31,0,.47.28.47.83v.04h-.66c0,.33.07.5.2.5.12,0,.18-.1.18-.3ZM51.9,26.93c-.01-.16-.03-.27-.06-.32-.03-.06-.07-.09-.13-.09s-.1.03-.13.09c-.03.05-.04.16-.06.32h.37Z"/><path class="cls-8" d="M52.69,25.3h.29v1.7l.37-.7h.33l-.4.7.45.87h-.34l-.41-.83v.83h-.29v-2.57Z"/></g></g></svg>