<?xml version="1.0" encoding="UTF-8"?><svg id="_レイヤー_2" xmlns="http://www.w3.org/2000/svg" viewBox="0 0 196.34 218.24"><defs><style>.cls-1{fill:#ee86a8;}.cls-2{fill:#ba79b1;}.cls-3{fill:#796baf;}.cls-4{fill:#59c3e1;}.cls-5{fill:#f29a63;}.cls-6{fill:#00ac97;}.cls-7{fill:#5d615e;}.cls-8{fill:#6c9bd2;}.cls-9{fill:#8cc66d;}</style></defs><g id="_レイヤー_1-2"><polygon class="cls-7" points="50.34 163.43 39.53 208.81 29.42 163.43 25.17 163.43 14.36 208.81 4.25 163.43 0 163.43 12.17 218.04 16.42 218.04 27.22 172.65 37.33 218.04 41.58 218.04 54.59 163.43 50.34 163.43"/><rect class="cls-2" x="72.1" y="186.28" width="24.34" height="4.25"/><polygon class="cls-7" points="96.44 167.68 96.44 163.43 69.63 163.43 65.38 163.43 65.38 167.68 65.38 213.99 65.38 218.04 65.38 218.24 96.44 218.24 96.44 213.99 69.63 213.99 69.63 167.68 96.44 167.68"/><rect class="cls-1" x="116" y="186.28" width="24.34" height="4.25"/><polygon class="cls-7" points="140.34 167.68 140.34 163.43 113.53 163.43 109.28 163.43 109.28 167.68 109.28 213.99 109.28 218.04 109.28 218.24 140.34 218.24 140.34 213.99 113.53 213.99 113.53 167.68 140.34 167.68"/><polygon class="cls-7" points="190.79 163.43 158.17 192.08 158.17 163.43 153.92 163.43 153.92 195.82 153.92 201.21 153.92 218.04 158.17 218.04 158.17 197.48 162.79 193.42 162.79 193.42 190.79 218.02 190.79 212.63 165.86 190.73 190.79 168.82 190.79 163.43"/><polygon class="cls-7" points="31.56 46.16 0 73.87 0 67.78 31.56 40.07 31.56 46.16"/><polygon class="cls-5" points="41.93 40.07 73.48 67.78 73.48 73.87 41.93 46.16 41.93 40.07"/><polygon class="cls-7" points="73.48 30.54 39.14 30.54 39.14 15.73 67.59 15.73 67.59 10.93 39.14 10.93 39.14 0 34.34 0 34.34 10.93 5.89 10.93 5.89 15.73 34.34 15.73 34.34 30.54 0 30.54 0 35.34 34.34 35.34 34.34 73.87 39.14 73.87 39.14 35.34 73.48 35.34 73.48 30.54"/><polygon class="cls-7" points="122.34 46.16 90.79 73.87 90.79 67.78 122.34 40.07 122.34 46.16"/><polygon class="cls-4" points="112.05 27.76 103.94 18.52 110.03 18.52 118.14 27.76 112.05 27.76"/><polygon class="cls-7" points="136.91 27.76 145.02 18.52 151.11 18.52 143 27.76 136.91 27.76"/><polygon class="cls-7" points="132.71 40.07 164.26 67.78 164.26 73.87 132.71 46.16 132.71 40.07"/><polygon class="cls-7" points="164.26 30.54 129.93 30.54 129.93 15.73 158.37 15.73 158.37 10.93 129.93 10.93 129.93 0 125.12 0 125.12 10.93 96.68 10.93 96.68 15.73 125.12 15.73 125.12 30.54 90.79 30.54 90.79 35.34 125.12 35.34 125.12 73.87 129.93 73.87 129.93 35.34 164.26 35.34 164.26 30.54"/><polygon class="cls-7" points="190.89 22.39 176.89 34.69 190.89 46.98 190.89 43.91 180.39 34.69 190.89 25.46 190.89 22.39"/><polygon class="cls-7" points="188.37 49.28 188.37 63.96 180.58 70.8 180.58 73.87 190.79 64.91 190.79 61.83 190.79 49.28 188.37 49.28"/><polygon class="cls-7" points="183.45 55.72 179.41 59.27 179.41 49.28 176.99 49.28 176.99 61.39 176.99 64.46 183.45 58.79 183.45 55.72"/><polygon class="cls-7" points="190.69 4.73 172.25 4.73 172.25 7.15 190.69 7.15 190.69 12.72 181.44 20.84 181.44 23.91 193.08 13.69 193.11 13.69 193.11 13.67 193.11 10.59 193.11 7.15 193.11 4.73 190.69 4.73"/><rect class="cls-8" x="193.92" y=".04" width="2.42" height="2.58"/><rect class="cls-3" x="189.88" y=".04" width="2.42" height="2.58"/><path class="cls-7" d="M35.43,91.9H0v55.93h39.38v-55.93h-3.95ZM35.43,143.88H3.95v-48.02h31.48v48.02Z"/><rect class="cls-6" x="94.65" y="88.63" width="6.96" height="3.95" transform="translate(188.73 -7.53) rotate(90)"/><rect class="cls-9" x="103.5" y="88.63" width="6.96" height="3.95" transform="translate(197.59 -16.38) rotate(90)"/><polygon class="cls-7" points="80.4 99.26 80.4 87.04 76.45 87.04 76.45 99.26 53.63 99.26 53.63 103.21 76.45 103.21 76.45 147.83 80.4 147.83 80.4 103.21 104.39 103.21 104.39 99.26 80.4 99.26"/><rect class="cls-7" x="56.35" y="116.57" width="3.95" height="31.27"/><rect class="cls-7" x="96.15" y="116.57" width="3.95" height="31.27"/><polygon class="cls-7" points="190.79 115.3 163.83 115.3 163.83 87.04 159.88 87.04 159.88 147.83 163.83 147.83 163.83 119.25 190.79 119.25 190.79 115.3"/><rect class="cls-7" x="116.49" y="109.26" width="3.95" height="17.92"/><rect class="cls-7" x="126.85" y="109.26" width="3.95" height="17.92"/><polygon class="cls-7" points="139.54 109.26 139.54 133.51 129.22 142.57 129.22 147.83 143.49 135.3 143.49 109.26 139.54 109.26"/></g></svg>